<svg width="229" height="33" viewBox="0 0 229 33" fill="none" xmlns="http://www.w3.org/2000/svg">
<g clip-path="url(#clip0_135_8247)">
<path d="M168.818 31.191C168.818 30.184 169.572 29.3634 170.651 29.3634C171.312 29.3634 171.713 29.5872 172.039 29.9042L171.545 30.473C171.275 30.2306 170.996 30.0721 170.651 30.0721C170.056 30.0721 169.637 30.5663 169.637 31.163C169.637 31.7785 170.056 32.282 170.651 32.282C171.052 32.282 171.294 32.1235 171.573 31.8717L172.066 32.3659C171.703 32.7482 171.303 32.9907 170.624 32.9907C169.59 32.9907 168.827 32.1888 168.827 31.1817L168.818 31.191Z" fill="white"/>
<path d="M172.914 31.191C172.914 30.184 173.705 29.3634 174.785 29.3634C175.865 29.3634 176.646 30.1746 176.646 31.1724C176.646 32.1794 175.855 33 174.775 33C173.696 33 172.914 32.1888 172.914 31.191ZM175.837 31.191C175.837 30.5756 175.399 30.0721 174.775 30.0721C174.152 30.0721 173.723 30.5663 173.723 31.163C173.723 31.7785 174.161 32.282 174.785 32.282C175.408 32.282 175.837 31.7878 175.837 31.191Z" fill="white"/>
<path d="M177.829 29.4193H178.601V32.2354H180.351V32.9347H177.829V29.4193Z" fill="white"/>
<path d="M181.431 29.4193H182.204V32.2354H183.954V32.9347H181.431V29.4193Z" fill="white"/>
<path d="M185.025 29.4193H187.668V30.1094H185.788V30.8274H187.445V31.5174H185.788V32.254H187.696V32.9441H185.025V29.4287V29.4193Z" fill="white"/>
<path d="M188.729 31.191C188.729 30.184 189.484 29.3634 190.563 29.3634C191.224 29.3634 191.625 29.5872 191.95 29.9042L191.457 30.473C191.187 30.2306 190.908 30.0721 190.563 30.0721C189.968 30.0721 189.549 30.5663 189.549 31.163C189.549 31.7785 189.968 32.282 190.563 32.282C190.964 32.282 191.215 32.1235 191.485 31.8717L191.978 32.3659C191.615 32.7482 191.215 32.9907 190.535 32.9907C189.502 32.9907 188.739 32.1888 188.739 31.1817L188.729 31.191Z" fill="white"/>
<path d="M193.896 30.1373H192.825V29.4287H195.73V30.1373H194.659V32.9441H193.887V30.1373H193.896Z" fill="white"/>
<path d="M196.865 29.4193H197.638V32.9347H196.865V29.4193Z" fill="white"/>
<path d="M198.709 29.4193H199.565L200.487 31.8997L201.408 29.4193H202.237L200.822 32.9627H200.142L198.727 29.4193H198.709Z" fill="white"/>
<path d="M203.27 29.4193H205.914V30.1094H204.033V30.8274H205.69V31.5174H204.033V32.254H205.942V32.9441H203.27V29.4287V29.4193Z" fill="white"/>
<path d="M210.335 29.4007H211.052L212.56 32.9441H211.75L211.434 32.1515H209.954L209.637 32.9441H208.846L210.354 29.4007H210.335ZM211.145 31.4708L210.68 30.3331L210.214 31.4708H211.145Z" fill="white"/>
<path d="M213.584 29.4193H214.357V32.2354H216.107V32.9347H213.584V29.4193Z" fill="white"/>
<path d="M217.187 29.4193H218.62C219.458 29.4193 219.961 29.9135 219.961 30.6315C219.961 31.4521 219.328 31.881 218.546 31.881H217.96V32.9347H217.187V29.4193ZM218.574 31.191C218.956 31.191 219.188 30.9579 219.188 30.6595C219.188 30.3052 218.946 30.1187 218.565 30.1187H217.969V31.191H218.583H218.574Z" fill="white"/>
<path d="M221.031 29.4193H221.804V30.8087H223.228V29.4193H224.001V32.9347H223.228V31.5267H221.804V32.9347H221.031V29.4193Z" fill="white"/>
<path d="M226.542 29.4007H227.259L228.767 32.9441H227.957L227.641 32.1515H226.161L225.844 32.9441H225.053L226.561 29.4007H226.542ZM227.352 31.4708L226.887 30.3331L226.421 31.4708H227.352Z" fill="white"/>
<path d="M25.7113 1.40802H31.3804L37.4871 17.8847L43.5938 1.40802H49.1326L39.6933 24.9715H35.1599L25.7113 1.40802Z" fill="white"/>
<path d="M47.4384 15.9452V15.8799C47.4384 10.77 51.0782 6.55524 56.2818 6.55524C62.2582 6.55524 64.9857 11.1989 64.9857 16.2809C64.9857 16.6818 64.9485 17.1481 64.9205 17.6143H52.4745C52.9772 19.9175 54.5783 21.1204 56.8497 21.1204C58.5532 21.1204 59.782 20.5889 61.1877 19.2834L64.0921 21.857C62.4258 23.9271 60.024 25.1953 56.7845 25.1953C51.4133 25.1953 47.4384 21.4188 47.4384 15.9359V15.9452ZM60.052 14.4439C59.7541 12.1687 58.4136 10.6301 56.2818 10.6301C54.1501 10.6301 52.8096 12.1314 52.4093 14.4439H60.052Z" fill="white"/>
<path d="M67.7505 6.89093H72.8239V9.42724C73.9875 7.92597 75.4955 6.55524 78.0648 6.55524C81.9001 6.55524 84.1342 9.09155 84.1342 13.2037V24.8036H79.0609V14.8076C79.0609 12.4018 77.9252 11.1616 75.9889 11.1616C74.0526 11.1616 72.8239 12.4018 72.8239 14.8076V24.8036H67.7505V6.89093Z" fill="white"/>
<path d="M87.532 6.89093H92.6054V9.42724C93.769 7.92597 95.277 6.55524 97.8463 6.55524C101.682 6.55524 103.916 9.09155 103.916 13.2037V24.8036H98.8423V14.8076C98.8423 12.4018 97.7067 11.1616 95.7704 11.1616C93.8341 11.1616 92.6054 12.4018 92.6054 14.8076V24.8036H87.532V6.89093Z" fill="white"/>
<path d="M115.822 13.3622V13.297C115.822 6.75106 120.746 1.38005 127.812 1.38005C132.15 1.38005 134.747 2.82537 136.879 4.93275L133.658 8.65329C131.88 7.04012 130.074 6.05171 127.774 6.05171C123.902 6.05171 121.109 9.27805 121.109 13.2224V13.2877C121.109 17.2413 123.837 20.5236 127.774 20.5236C130.4 20.5236 132.01 19.4699 133.816 17.8288L137.037 21.0831C134.672 23.6194 132.047 25.1953 127.607 25.1953C120.839 25.1953 115.812 19.9641 115.812 13.3436L115.822 13.3622Z" fill="white"/>
<path d="M138.88 19.6564V19.5911C138.88 15.6841 141.85 13.8751 146.085 13.8751C147.891 13.8751 149.185 14.1735 150.451 14.6118V14.3134C150.451 12.206 149.148 11.0404 146.616 11.0404C144.68 11.0404 143.311 11.4041 141.682 12.0102L140.416 8.13111C142.38 7.26392 144.317 6.69511 147.351 6.69511C150.116 6.69511 152.127 7.43176 153.393 8.69991C154.724 10.0333 155.329 12.0102 155.329 14.4159V24.8129H150.423V22.8734C149.185 24.2441 147.491 25.1486 145.015 25.1486C141.645 25.1486 138.88 23.2091 138.88 19.6657V19.6564ZM150.526 18.4908V17.5863C149.66 17.1854 148.524 16.9149 147.286 16.9149C145.117 16.9149 143.786 17.7821 143.786 19.386V19.4513C143.786 20.822 144.922 21.6239 146.551 21.6239C148.915 21.6239 150.516 20.3185 150.516 18.4815L150.526 18.4908Z" fill="white"/>
<path d="M158.699 6.89093H163.772V9.46454C165.01 7.79542 166.705 6.55524 169.348 6.55524C173.519 6.55524 177.484 9.8282 177.484 15.8146V15.8799C177.484 21.8663 173.584 25.1393 169.348 25.1393C166.649 25.1393 164.982 23.8991 163.772 22.4631V32.9441H158.699V6.89093ZM172.411 15.8799V15.8146C172.411 12.8401 170.41 10.8726 168.036 10.8726C165.662 10.8726 163.698 12.8401 163.698 15.8146V15.8799C163.698 18.8545 165.662 20.822 168.036 20.822C170.41 20.822 172.411 18.8825 172.411 15.8799Z" fill="white"/>
<path d="M180.445 6.89093H185.518V24.8036H180.445V6.89093ZM185.537 2.54563C185.537 3.95366 184.401 5.09127 182.995 5.09127C181.59 5.09127 180.454 3.95366 180.454 2.54563C180.454 1.13761 181.59 0 182.995 0C184.401 0 185.537 1.13761 185.537 2.54563Z" fill="white"/>
<path d="M195.19 11.2362V18.8918C195.19 20.0574 195.693 20.6262 196.828 20.6262C197.759 20.6262 198.597 20.3931 199.332 19.9921V24.067C198.262 24.701 197.033 25.102 195.33 25.102C192.22 25.102 190.126 23.8618 190.126 19.7217V11.2269H187.994V6.88161H190.126V2.31252H195.199V6.89093H199.407V11.2362H195.199H195.19Z" fill="white"/>
<path d="M223.927 0.410286H229V24.8036H223.927V0.410286Z" fill="white"/>
<path d="M218.258 6.52727H205.7C204.071 6.52727 202.73 7.87002 202.73 9.50184V22.0808C202.73 23.7126 204.071 25.0554 205.7 25.0554H218.258C219.887 25.0554 221.227 23.7126 221.227 22.0808V9.50184C221.227 7.87002 219.887 6.52727 218.258 6.52727ZM217.271 21.885C216.722 21.9409 216.303 21.54 216.07 21.0924C215.614 20.2252 215.176 19.33 214.86 18.4069C214.422 17.1014 214.162 15.7307 213.724 14.4253C213.426 13.5394 213.054 12.6536 212.551 11.8703C211.378 10.024 209.386 10.024 208.12 11.8237C207.105 13.269 206.882 14.9008 207.04 16.6072C207.133 17.5677 207.366 18.4908 207.915 19.3114C208.995 20.9339 210.792 21.167 212.253 19.8802C212.998 19.2181 213.473 18.3789 213.901 17.3905C214.087 17.9407 214.264 18.3976 214.385 18.8731C214.422 19.013 214.32 19.2181 214.227 19.358C213.072 21.0178 211.546 22.0062 209.451 21.7638C207.441 21.5307 206.054 20.3837 205.225 18.5654C204.061 16.0198 204.676 12.7934 206.631 10.9378C209.395 8.29895 213.78 9.19412 215.297 12.7002C215.344 12.8121 215.4 12.9147 215.493 13.1291C215.595 12.868 215.67 12.6815 215.735 12.4951C216.033 11.6652 216.331 10.8353 216.61 10.0054C216.703 9.73495 216.843 9.60441 217.131 9.60441C217.466 9.60441 217.801 9.55778 218.127 9.54846C218.611 9.52981 218.649 9.58576 218.472 10.024C217.783 11.7118 217.094 13.3995 216.386 15.0687C216.256 15.3857 216.238 15.6561 216.359 15.9732C216.74 17.0082 217.103 18.0619 217.457 19.1062C217.755 19.9641 218.406 20.421 219.235 20.5609C219.756 20.6448 219.961 20.9059 220.073 21.4467C219.114 21.5959 218.192 21.7917 217.261 21.8757L217.271 21.885Z" fill="url(#paint0_linear_135_8247)"/>
<path d="M19.4185 9.78157C19.3999 10.052 19.3627 10.3224 19.3161 10.5928C18.9065 12.7748 17.5009 14.6024 15.5925 15.5908C15.6484 15.8613 15.6949 16.1317 15.7229 16.4207C17.9105 15.3857 19.5488 13.3622 20.0608 10.9378C20.1167 10.6674 20.1632 10.397 20.1911 10.1079C19.9398 9.98672 19.6885 9.88415 19.4185 9.7909V9.78157Z" fill="url(#paint1_linear_135_8247)"/>
<path d="M20.2283 9.27804C20.2283 9.55778 20.219 9.8282 20.1818 10.0986C19.9304 9.97739 19.6791 9.87482 19.4091 9.78158C19.4185 9.61373 19.4278 9.44589 19.4278 9.27804C19.4278 5.36168 16.2534 2.18197 12.3437 2.18197C8.4339 2.18197 5.25955 5.36168 5.25955 9.27804C5.25955 9.44589 5.25955 9.61373 5.27817 9.78158C5.29679 10.052 5.33403 10.3224 5.38057 10.5928C5.79016 12.7748 7.19581 14.6024 9.10415 15.5908C9.04829 15.8613 9.00175 16.1317 8.97382 16.4207C6.78622 15.3857 5.14785 13.3622 4.63585 10.9378C4.58 10.6674 4.53346 10.397 4.50553 10.1079C4.4776 9.83752 4.45898 9.56711 4.45898 9.28737C4.46829 4.92342 8.00569 1.38937 12.353 1.38937C16.7002 1.38937 20.2376 4.93275 20.2376 9.28737L20.2283 9.27804Z" fill="white"/>
<path d="M20.1911 10.0986C19.9397 9.97739 19.6884 9.87482 19.4184 9.78157C18.6085 9.49251 17.7335 9.34332 16.8212 9.34332C15.1642 9.34332 13.619 9.85617 12.3529 10.742C12.5857 10.9005 12.7998 11.0684 13.0139 11.2549C14.1123 10.5462 15.4249 10.1359 16.8212 10.1359C17.6963 10.1359 18.5341 10.2944 19.3067 10.5835C19.5674 10.6767 19.8094 10.7886 20.0514 10.9192C22.3321 12.0941 23.896 14.4812 23.896 17.232C23.896 21.139 20.7217 24.3281 16.8119 24.3281C15.4063 24.3281 14.103 23.9178 13.0046 23.2091C12.7718 23.0599 12.5577 22.9014 12.3436 22.7242C10.7518 21.4188 9.72781 19.4419 9.72781 17.2227C9.72781 17.0548 9.72782 16.887 9.74643 16.7191C9.47647 16.6259 9.22513 16.5233 8.97379 16.4021C8.94586 16.6725 8.92725 16.9429 8.92725 17.2227C8.92725 19.6098 9.98847 21.7544 11.6734 23.1998C11.8875 23.3863 12.1016 23.5541 12.3343 23.7126C13.6096 24.5985 15.1456 25.1113 16.8026 25.1113C21.1499 25.1113 24.6873 21.568 24.6873 17.2133C24.6873 14.0616 22.8441 11.3388 20.1724 10.08L20.1911 10.0986Z" fill="white"/>
<path d="M15.7135 16.4114C15.4622 16.5326 15.2108 16.6352 14.9409 16.7285C14.131 17.0175 13.256 17.1667 12.3437 17.1667C11.4314 17.1667 10.5657 17.0082 9.74649 16.7285C9.47653 16.6352 9.22519 16.5326 8.97385 16.4114C9.00178 16.1317 9.04832 15.8519 9.10417 15.5815C9.46722 13.8658 10.3981 12.3552 11.6734 11.2549C10.575 10.5462 9.26243 10.1359 7.86608 10.1359C6.99104 10.1359 6.15324 10.2944 5.3806 10.5835C5.33405 10.3224 5.29682 10.052 5.2782 9.77225C6.08808 9.48319 6.96312 9.33399 7.87539 9.33399C9.53239 9.33399 11.0777 9.84685 12.3437 10.7327C12.5764 10.8912 12.7905 11.0591 13.0046 11.2455C14.2893 12.3459 15.2108 13.8565 15.5739 15.5722C15.6297 15.8426 15.6763 16.113 15.7042 16.4021L15.7135 16.4114Z" fill="url(#paint2_linear_135_8247)"/>
<path d="M15.7135 16.4114C15.4622 16.5326 15.2108 16.6352 14.9409 16.7285C14.9502 16.8963 14.9595 17.0641 14.9595 17.232C14.9595 19.4513 13.9448 21.4281 12.3437 22.7335C12.1296 22.9107 11.9154 23.0692 11.6827 23.2184C10.5843 23.9271 9.27171 24.3374 7.87537 24.3374C3.96561 24.3374 0.79126 21.1483 0.79126 17.2413C0.79126 14.4905 2.35516 12.1127 4.63585 10.9285C4.58 10.6581 4.53346 10.3877 4.50553 10.0986C1.84317 11.3668 0 14.0896 0 17.232C0 21.5866 3.5374 25.13 7.88468 25.13C9.54167 25.13 11.087 24.6171 12.353 23.7313C12.5857 23.5728 12.7998 23.4049 13.0139 23.2184C14.6895 21.7731 15.76 19.6284 15.76 17.2413C15.76 16.9616 15.7507 16.6912 15.7135 16.4207V16.4114Z" fill="url(#paint3_linear_135_8247)"/>
<path d="M15.7135 16.4114C14.6522 16.9522 13.5352 17.1667 12.3436 17.1667C11.1521 17.1667 9.97915 16.9336 8.96448 16.3834C9.07618 14.0336 10.3701 12.0288 12.3436 10.7327C14.5498 12.2806 15.4435 14.1269 15.7135 16.4021V16.4114Z" fill="white"/>
</g>
<defs>
<linearGradient id="paint0_linear_135_8247" x1="202.73" y1="15.7867" x2="221.227" y2="15.7867" gradientUnits="userSpaceOnUse">
<stop stop-color="#FF934D"/>
<stop offset="1" stop-color="#FFBA38"/>
</linearGradient>
<linearGradient id="paint1_linear_135_8247" x1="15.5832" y1="13.1012" x2="20.1911" y2="13.1012" gradientUnits="userSpaceOnUse">
<stop stop-color="#FF934D"/>
<stop offset="1" stop-color="#FFBA38"/>
</linearGradient>
<linearGradient id="paint2_linear_135_8247" x1="5.28751" y1="13.2597" x2="15.7135" y2="13.2597" gradientUnits="userSpaceOnUse">
<stop stop-color="#FF934D"/>
<stop offset="1" stop-color="#FFBA38"/>
</linearGradient>
<linearGradient id="paint3_linear_135_8247" x1="0" y1="17.6143" x2="15.76" y2="17.6143" gradientUnits="userSpaceOnUse">
<stop stop-color="#FF934D"/>
<stop offset="1" stop-color="#FFBA38"/>
</linearGradient>
<clipPath id="clip0_135_8247">
<rect width="229" height="33" fill="white"/>
</clipPath>
</defs>
</svg>
