<svg width="261" height="39" fill="none" xmlns="http://www.w3.org/2000/svg"><g clip-path="url(#a)"><path d="M30.688 1.619h6.486l6.983 18.923 6.988-18.923h6.337l-10.8 27.06h-5.19L30.688 1.618ZM55.54 18.317v-.077c0-5.873 4.158-10.71 10.115-10.71 6.833 0 9.96 5.336 9.96 11.17 0 .46-.038.999-.076 1.537H61.303c.574 2.65 2.405 4.031 5.002 4.031 1.947 0 3.36-.615 4.964-2.113l3.32 2.956c-1.908 2.38-4.655 3.838-8.36 3.838-6.145 0-10.69-4.337-10.69-10.632Zm14.428-1.725c-.342-2.612-1.87-4.375-4.313-4.375-2.444 0-3.971 1.725-4.429 4.375h8.742ZM78.782 7.913h5.802v2.918c1.335-1.726 3.055-3.3 5.99-3.3 4.39 0 6.944 2.917 6.944 7.637v13.316h-5.802V17.01c0-2.762-1.296-4.182-3.513-4.182-2.217 0-3.624 1.42-3.624 4.182v11.475h-5.802V7.914h.005ZM101.417 7.913h5.802v2.918c1.335-1.726 3.055-3.3 5.99-3.3 4.39 0 6.944 2.917 6.944 7.637v13.316h-5.802V17.01c0-2.762-1.296-4.182-3.513-4.182-2.217 0-3.624 1.42-3.624 4.182v11.475h-5.802V7.914h.005ZM131.531 15.342v-.077c0-7.521 5.639-13.68 13.72-13.68 4.964 0 7.932 1.662 10.376 4.08l-3.682 4.27c-2.029-1.852-4.096-2.986-6.728-2.986-4.433 0-7.628 3.702-7.628 8.238v.078c0 4.535 3.118 8.315 7.628 8.315 3.007 0 4.848-1.211 6.916-3.101l3.681 3.74c-2.708 2.913-5.71 4.726-10.785 4.726-7.744 0-13.493-6.01-13.493-13.608l-.005.005ZM157.901 22.577V22.5c0-4.492 3.398-6.562 8.246-6.562 2.062 0 3.551.344 5.002.844v-.345c0-2.418-1.489-3.76-4.39-3.76-2.212 0-3.779.422-5.648 1.114l-1.451-4.453c2.251-.998 4.467-1.652 7.937-1.652 3.166 0 5.46.843 6.911 2.301 1.527 1.537 2.212 3.8 2.212 6.562v11.935h-5.61V26.26c-1.412 1.575-3.359 2.612-6.183 2.612-3.855 0-7.021-2.224-7.021-6.295h-.005Zm13.32-1.342v-1.037c-.993-.46-2.289-.766-3.701-.766-2.482 0-4.01.998-4.01 2.84v.077c0 1.575 1.297 2.496 3.167 2.496 2.708 0 4.544-1.497 4.544-3.61ZM180.575 7.913h5.802v2.956c1.412-1.919 3.359-3.338 6.375-3.338 4.771 0 9.316 3.76 9.316 10.632v.077c0 6.872-4.468 10.632-9.316 10.632-3.093 0-5.002-1.42-6.375-3.072v13.127h-5.802V7.913Zm15.686 10.327v-.077c0-3.417-2.289-5.68-5.002-5.68-2.714 0-4.964 2.263-4.964 5.68v.077c0 3.416 2.25 5.68 4.964 5.68 2.713 0 5.002-2.225 5.002-5.68ZM205.46 7.913h5.803v20.571h-5.803V7.914Zm5.827-4.99a2.914 2.914 0 0 1-2.906 2.921 2.914 2.914 0 0 1-2.906-2.922A2.914 2.914 0 0 1 208.381 0a2.914 2.914 0 0 1 2.906 2.922ZM222.327 12.905v8.79c0 1.343.574 1.997 1.87 1.997 1.07 0 2.024-.267 2.863-.727v4.68c-1.225.733-2.632 1.193-4.579 1.193-3.551 0-5.956-1.42-5.956-6.178v-9.75h-2.443V7.922h2.443V2.656h5.802v5.257h4.81V12.9h-4.81v.005ZM255.198.47H261v28.02h-5.802V.47Z" fill="white"/><path d="M248.716 7.492h-14.365c-1.87 0-3.398 1.536-3.398 3.416v14.446c0 1.88 1.528 3.416 3.398 3.416h14.365c1.87 0 3.398-1.536 3.398-3.416V10.908c0-1.88-1.528-3.416-3.398-3.416Zm-1.132 17.634c-.632.063-1.104-.397-1.369-.906-.52-.998-1.026-2.02-1.383-3.082-.501-1.502-.795-3.072-1.296-4.575-.338-1.017-.771-2.03-1.34-2.931-1.34-2.118-3.624-2.118-5.07-.059-1.166 1.658-1.412 3.528-1.233 5.496.101 1.105.376 2.166.997 3.106 1.234 1.866 3.287 2.137 4.959.654.853-.756 1.398-1.725 1.889-2.854.212.63.415 1.158.554 1.706.039.16-.072.397-.178.552-1.325 1.91-3.065 3.038-5.46 2.762-2.304-.266-3.884-1.59-4.829-3.673-1.33-2.927-.626-6.624 1.615-8.761 3.166-3.029 8.178-2.002 9.912 2.025.053.126.111.247.222.49.116-.306.203-.514.28-.727.337-.95.684-1.9 1.002-2.86.101-.314.265-.46.593-.465.38-.004.761-.053 1.142-.067.549-.02.597.043.39.547-.79 1.934-1.58 3.872-2.39 5.8-.149.36-.169.674-.034 1.043.439 1.192.848 2.394 1.258 3.6.337.984 1.084 1.507 2.029 1.667.597.102.834.393.954 1.018-1.099.174-2.149.392-3.214.499v-.005Z" fill="url(#b)"/><path d="M28.635 19.253a8.335 8.335 0 0 0-.78-3.082c-1.018-2.166-2.627-3.698-4.83-4.604-.091-.034-.125-.077-.115-.174a8.261 8.261 0 0 0-.044-2.234c-.313-2.123-1.257-3.92-2.852-5.345-2.063-1.847-4.487-2.578-7.22-2.195-2.11.295-3.898 1.264-5.31 2.863C5.648 6.566 4.92 9 5.306 11.712c.01.117.029.223.048.34.077.45.188.891.328 1.303.554 1.672 1.585 3.063 3.021 4.187a8.574 8.574 0 0 0 2.15 1.217c.072.029.12.048.1.14a8.311 8.311 0 0 0 .112 2.675c.293 1.502.91 2.825 1.855 3.969a7.133 7.133 0 0 0 2.906-5.752c0-.204-.01-.402-.03-.601-.139.034-.284.053-.428.077a8.675 8.675 0 0 1-4.289-.426c-.077-.03-.116-.068-.092-.145.111-.49.212-.984.319-1.474a.215.215 0 0 1 .028-.058c.275.092.53.199.8.262 1.171.296 2.285.349 3.34.145a7.175 7.175 0 0 0-2.472-3.465c-.675.81-1.21 1.755-1.605 2.84-.024.053-.039.102-.058.155 0 .005-.005.01-.034.039-.255-.13-.515-.247-.766-.393-1.595-.944-2.708-2.243-3.257-3.925a6.728 6.728 0 0 1-.275-1.105 10.102 10.102 0 0 1-.072-.513c-.26-2.34.51-4.376 2.25-6.053 1.07-1.032 2.357-1.667 3.826-1.86 2.477-.34 4.593.406 6.328 2.219.646.664 1.118 1.454 1.455 2.321.275.708.439 1.44.472 2.205.01.3 0 .606 0 .906 0 .092-.024.13-.13.116-1.378-.213-2.746-.13-4.067.32-1.103.378-2.062.897-2.887 1.56a8.698 8.698 0 0 1 2.848 4.13c.685-.316 1.335-.762 1.957-1.329 1.214-1.11 1.937-2.505 2.207-4.138.024-.136.034-.271.048-.407.01-.078.03-.111.116-.092.487.092.964.218 1.44.388.073.029.088.058.078.135-.29 2.055-1.166 3.81-2.655 5.253-.844.814-1.779 1.435-2.82 1.852a8.77 8.77 0 0 1-3.31 7.996c1.624 1.38 3.537 2.064 5.84 2.098.256-.025.66-.04 1.066-.097 1.879-.262 3.522-1.042 4.886-2.365 1.995-1.939 2.916-4.318 2.752-7.11Z" fill="url(#c)"/><path d="M12.92 25.552a6.98 6.98 0 0 1-4.183 1.382c-3.913 0-7.094-3.199-7.094-7.134a7.139 7.139 0 0 1 4.039-6.435 7.156 7.156 0 0 1 3.055-.698c1.6 0 3.08.543 4.265 1.44a7.744 7.744 0 0 1 1.185-1.168 8.651 8.651 0 0 0-7.252-1.74 8.498 8.498 0 0 0-1.63.514C2.189 13.069 0 16.18 0 19.796c0 4.846 3.918 8.78 8.732 8.78a8.633 8.633 0 0 0 5.359-1.856 6.299 6.299 0 0 1-.434-.383c-.265-.256-.51-.518-.737-.79v.005ZM192.839 36.94v-.01c0-1.138.853-2.073 2.077-2.073.752 0 1.2.252 1.571.62l-.559.65c-.308-.282-.621-.451-1.021-.451-.67 0-1.157.562-1.157 1.25v.01c0 .688.472 1.26 1.157 1.26.458 0 .732-.185 1.05-.47l.559.566c-.409.441-.867.718-1.633.718-1.171 0-2.044-.911-2.044-2.065v-.005ZM197.495 36.94v-.01c0-1.138.896-2.073 2.125-2.073s2.115.92 2.115 2.064v.01c0 1.139-.896 2.074-2.125 2.074s-2.115-.92-2.115-2.065Zm3.32 0v-.01c0-.687-.501-1.26-1.21-1.26-.708 0-1.195.563-1.195 1.251v.01c0 .688.501 1.26 1.205 1.26.704 0 1.195-.562 1.195-1.25h.005ZM203.08 34.92h.877v3.208h1.99v.8h-2.867V34.92ZM207.171 34.92h.877v3.208h1.99v.8h-2.867V34.92ZM211.263 34.92h3.007v.785h-2.135v.814h1.879v.785h-1.879v.843h2.164v.785h-3.036V34.92ZM215.47 36.94v-.01c0-1.138.853-2.073 2.082-2.073.751 0 1.2.252 1.571.62l-.559.65c-.309-.282-.622-.451-1.022-.451-.67 0-1.157.562-1.157 1.25v.01c0 .688.473 1.26 1.157 1.26.458 0 .737-.185 1.05-.47l.559.566c-.409.441-.867.718-1.633.718-1.176 0-2.043-.911-2.043-2.065l-.005-.005ZM221.344 35.734h-1.214v-.814h3.306v.814h-1.215v3.198h-.877v-3.198ZM224.713 34.92h.877v4.007h-.877V34.92ZM226.809 34.92h.969l1.041 2.825 1.04-2.825h.945l-1.614 4.036h-.776l-1.615-4.036h.01ZM231.989 34.92h3.007v.785h-2.134v.814h1.879v.785h-1.879v.843h2.163v.785h-3.036V34.92ZM240.018 34.895h.809l1.711 4.037h-.915l-.367-.901h-1.686l-.367.901h-.896l1.711-4.037Zm.92 2.36-.53-1.298-.53 1.298h1.06ZM243.714 34.92h.877v3.208h1.99v.8h-2.867V34.92ZM247.805 34.92h1.629c.95 0 1.528.567 1.528 1.386v.01c0 .925-.718 1.41-1.61 1.41h-.665v1.201h-.877V34.92h-.005Zm1.571 2.02c.439 0 .694-.261.694-.605v-.01c0-.397-.274-.606-.713-.606h-.679v1.226h.694l.004-.005ZM252.176 34.92h.877v1.584h1.62V34.92h.877v4.007h-.877v-1.609h-1.62v1.61h-.877V34.92ZM258.436 34.895h.81l1.711 4.037h-.916l-.366-.901h-1.687l-.366.901h-.896l1.71-4.037Zm.921 2.36-.53-1.298-.53 1.298h1.06Z" fill="white"/></g><defs><linearGradient id="b" x1="230.953" y1="18.134" x2="252.114" y2="18.134" gradientUnits="userSpaceOnUse"><stop stop-color="#F1893E"/><stop offset="1" stop-color="#FAB515"/></linearGradient><linearGradient id="c" x1="5.205" y1="15.173" x2="28.649" y2="15.173" gradientUnits="userSpaceOnUse"><stop stop-color="#F1893E"/><stop offset="1" stop-color="#FAB515"/></linearGradient><clipPath id="a"><path fill="white" d="M0 0h261v39H0z"/></clipPath></defs></svg>