<svg width="1000" height="1000" viewBox="0 0 1000 1000" fill="none" xmlns="http://www.w3.org/2000/svg">
<rect x="0.5" y="0.5" width="999" height="999" fill="#022A32"/>
<path d="M906.901 616.195C905.257 585.607 897.584 556.26 884.704 528.565C855.793 466.976 810.029 423.437 747.412 397.672C744.808 396.707 743.849 395.467 744.123 392.712C746.589 371.493 746.178 350.412 742.89 329.194C733.984 268.845 707.128 217.728 661.775 177.22C603.131 124.724 534.21 103.919 456.521 114.804C396.507 123.209 345.673 150.765 305.526 196.234C253.322 255.48 232.632 324.647 243.594 401.805C243.868 405.112 244.416 408.143 244.964 411.45C247.156 424.264 250.308 436.802 254.281 448.514C270.038 496.049 299.36 535.592 340.192 567.558C358.827 582.163 379.379 593.461 401.302 602.141C403.358 602.968 404.728 603.519 404.18 606.137C401.028 631.627 402.261 656.979 407.331 682.193C415.689 724.906 433.228 762.52 460.083 795.037C510.095 758.111 542.706 698.727 542.706 631.489C542.706 625.702 542.432 620.053 541.883 614.404C537.91 615.368 533.799 615.919 529.689 616.608C488.035 622.809 447.478 618.813 407.742 604.484C405.55 603.657 404.454 602.555 405.139 600.35C408.29 586.434 411.168 572.38 414.182 558.464C414.319 558.051 414.593 557.362 415.004 556.811C422.814 559.429 430.076 562.46 437.749 564.251C471.045 572.656 502.696 574.171 532.703 568.384C519.686 528.841 494.886 494.533 462.413 469.87C443.23 492.88 428.021 519.747 416.785 550.611C416.1 552.126 415.689 553.504 415.141 555.02C415.141 555.157 415.004 555.295 414.182 556.122C406.92 552.402 399.521 549.095 392.396 544.961C347.043 518.094 315.392 481.168 299.771 433.357C296.346 423.437 293.743 412.828 291.961 401.943C291.139 396.983 290.454 392.16 289.906 387.338C282.507 320.789 304.43 262.92 353.894 215.248C384.312 185.9 420.896 167.85 462.687 162.339C533.114 152.694 593.266 173.913 642.592 225.443C660.953 244.32 674.381 266.778 683.972 291.441C691.782 311.558 696.441 332.363 697.4 354.132C697.674 362.675 697.4 371.355 697.4 379.898C697.4 382.516 696.715 383.618 693.7 383.205C654.513 377.142 615.6 379.484 578.056 392.298C546.679 403.045 519.412 417.788 495.982 436.664C533.388 466.563 561.888 507.209 576.96 554.055C596.417 545.099 614.914 532.423 632.59 516.303C667.119 484.75 687.671 445.069 695.344 398.636C696.03 394.778 696.304 390.92 696.715 387.063C696.989 384.858 697.537 383.894 700.003 384.445C713.842 387.063 727.407 390.645 740.972 395.467C743.027 396.294 743.438 397.121 743.164 399.325C734.943 457.745 710.005 507.622 667.667 548.682C643.688 571.829 617.107 589.465 587.511 601.315C588.744 611.235 589.429 621.431 589.429 631.764C589.429 711.816 551.749 783.05 493.379 828.656C539.554 867.924 593.951 887.351 659.446 888.316C666.708 887.627 678.217 887.213 689.727 885.56C743.164 878.12 789.887 855.937 828.664 818.322C885.389 763.209 911.56 695.558 906.901 616.195Z" fill="url(#paint0_linear_326_1718)"/>
<path d="M460.083 795.312C426.787 820.113 385.545 834.581 341.151 834.581C229.892 834.581 139.459 743.644 139.459 631.765C139.459 551.162 186.32 481.581 254.281 448.789C268.531 441.9 283.74 436.664 299.771 433.357C313.062 430.602 326.901 428.948 341.151 428.948C386.641 428.948 428.706 444.38 462.412 469.87C472.415 457.607 483.65 446.585 496.119 436.664C453.643 402.356 399.658 381.827 341.151 381.827C323.612 381.827 306.485 383.756 289.906 387.2C273.875 390.507 258.391 395.467 243.593 401.805C154.942 440.384 92.7358 528.841 92.7358 631.627C92.7358 769.409 204.132 881.289 341.014 881.289C398.288 881.289 451.177 861.724 493.378 828.518C489.268 825.211 485.02 821.491 481.047 817.633C473.511 810.331 466.523 802.891 460.083 795.175V795.312Z" fill="white"/>
<rect x="0.5" y="0.5" width="999" height="999" stroke="black"/>
<defs>
<linearGradient id="paint0_linear_326_1718" x1="240.716" y1="500.182" x2="907.312" y2="500.182" gradientUnits="userSpaceOnUse">
<stop stop-color="#F1893E"/>
<stop offset="1" stop-color="#FAB515"/>
</linearGradient>
</defs>
</svg>
