<?xml version="1.0" encoding="UTF-8"?>
<svg id="Layer_1" data-name="Layer 1" xmlns="http://www.w3.org/2000/svg" width="266" height="98.05" xmlns:xlink="http://www.w3.org/1999/xlink" viewBox="0 0 266 98.05">
  <defs>
    <style>
      .cls-1 {
        fill: #fff;
      }

      .cls-2 {
        fill: #353838;
      }

      .cls-3 {
        fill: #01b6eb;
      }

      .cls-4 {
        fill: url(#linear-gradient);
        mix-blend-mode: darken;
      }

      .cls-5 {
        mask: url(#mask);
      }
    </style>
    <linearGradient id="linear-gradient" x1="132.89" y1="46.32" x2="119.81" y2="42.06" gradientUnits="userSpaceOnUse">
      <stop offset="0" stop-color="#fff"/>
      <stop offset=".1" stop-color="#f9f9f9"/>
      <stop offset=".24" stop-color="#e9e8e8"/>
      <stop offset=".39" stop-color="#cecdcd"/>
      <stop offset=".56" stop-color="#a9a7a8"/>
      <stop offset=".73" stop-color="#797777"/>
      <stop offset=".91" stop-color="#403c3d"/>
      <stop offset="1" stop-color="#231f20"/>
    </linearGradient>
    <mask id="mask" x="96.54" y=".61" width="89.52" height="89.29" maskUnits="userSpaceOnUse">
      <g>
        <path class="cls-1" d="m134.52,51.66l6.6-20.3h0s.78-2.42.78-2.42v-.02c.38-1.18,1.08-2.21,1.99-3,1.13-.96,2.59-1.55,4.2-1.55s3.06.59,4.19,1.55c.91.78,1.6,1.79,1.97,2.96l.03.08,7.42,22.85,15.6-48.04.03-.07c.58-1.8,2.26-3.1,4.25-3.1,2.47,0,4.47,2.01,4.47,4.48,0,.45-.07.87-.19,1.28l-.04.14-17.93,55.24-.02.06c-.37,1.16-1.06,2.18-1.96,2.95-1.13.96-2.6,1.55-4.2,1.55s-3.07-.59-4.2-1.56c-.89-.76-1.57-1.77-1.94-2.91v-.02s-7.47-22.97-7.47-22.97l-6.59,20.3h0s-.78,2.42-.78,2.42v.02c-.38,1.18-1.08,2.21-1.99,2.99-1.13.96-2.6,1.55-4.2,1.55s-3.07-.58-4.2-1.55c-.91-.77-1.6-1.79-1.97-2.95l-.03-.09-7.42-22.84-15.6,48.03-.02.08c-.58,1.8-2.27,3.1-4.26,3.1-2.47,0-4.47-2-4.47-4.48,0-.44.07-.87.19-1.28l.05-.14,17.94-55.24.02-.06c.37-1.16,1.06-2.17,1.96-2.95,1.13-.97,2.6-1.56,4.2-1.56s3.07.59,4.2,1.56c.9.76,1.57,1.77,1.94,2.91l7.48,22.99Z"/>
        <path class="cls-4" d="m127.55,30.19c-.28-.81-1.04-1.39-1.94-1.39-.84,0-1.57.51-1.89,1.24h0s0,0,0,0c-.03.06-.04.13-.06.19l-2.75,8.45,6.89,21.21,5.04-13.43"/>
      </g>
    </mask>
  </defs>
  <g>
    <g class="cls-5">
      <path class="cls-3" d="m134.52,51.66l6.6-20.3h0s.78-2.42.78-2.42v-.02c.38-1.18,1.08-2.21,1.99-3,1.13-.96,2.59-1.55,4.2-1.55s3.06.59,4.19,1.55c.91.78,1.6,1.79,1.97,2.96l.03.08,7.42,22.85,15.6-48.04.03-.07c.58-1.8,2.26-3.1,4.25-3.1,2.47,0,4.47,2.01,4.47,4.48,0,.45-.07.87-.19,1.28l-.04.14-17.93,55.24-.02.06c-.37,1.16-1.06,2.18-1.96,2.95-1.13.96-2.6,1.55-4.2,1.55s-3.07-.59-4.2-1.56c-.89-.76-1.57-1.77-1.94-2.91v-.02s-7.47-22.97-7.47-22.97l-6.59,20.3h0s-.78,2.42-.78,2.42v.02c-.38,1.18-1.08,2.21-1.99,2.99-1.13.96-2.6,1.55-4.2,1.55s-3.07-.58-4.2-1.55c-.91-.77-1.6-1.79-1.97-2.95l-.03-.09-7.42-22.84-15.6,48.03-.02.08c-.58,1.8-2.27,3.1-4.26,3.1-2.47,0-4.47-2-4.47-4.48,0-.44.07-.87.19-1.28l.05-.14,17.94-55.24.02-.06c.37-1.16,1.06-2.17,1.96-2.95,1.13-.97,2.6-1.56,4.2-1.56s3.07.59,4.2,1.56c.9.76,1.57,1.77,1.94,2.91l7.48,22.99Z"/>
    </g>
    <path class="cls-2" d="m46.69,24.31c-2.47,0-4.47,2.01-4.47,4.48v32.86c0,2.47,2.01,4.47,4.47,4.47s4.47-2.01,4.47-4.47V28.79c0-2.47-2.01-4.48-4.47-4.48Z"/>
    <path class="cls-2" d="m82.91,24.23h-23.78c-2.47,0-4.48,2.01-4.48,4.47s2.01,4.47,4.48,4.47h7.42v28.47c0,2.47,2.01,4.47,4.47,4.47s4.47-2.01,4.47-4.47v-28.47h7.42c2.47,0,4.48-2.01,4.48-4.47s-2.01-4.47-4.48-4.47Z"/>
    <path class="cls-2" d="m187.6,24.31c-2.46,0-4.48,2.01-4.48,4.48v32.86c0,2.47,2.01,4.47,4.48,4.47s4.47-2.01,4.47-4.47V28.79c0-2.47-2-4.48-4.47-4.48Z"/>
    <path class="cls-2" d="m260.43,57.2h-16.46v-7.56h10.59c2.47,0,4.47-2.01,4.47-4.48s-2.01-4.47-4.47-4.47h-10.59v-7.52h16.46c2.47,0,4.48-2.01,4.48-4.47s-2.01-4.47-4.48-4.47h-20.93c-2.46,0-4.48,2.01-4.48,4.47,0,.02,0,.03,0,.04,0,.02,0,.03,0,.05v32.86s0,0,0,0h0c0,2.48,2.01,4.48,4.48,4.48h20.93c2.47,0,4.48-2.01,4.48-4.48s-2.01-4.47-4.48-4.47Z"/>
    <path class="cls-2" d="m230.65,36.17c0-.07-.01-.15-.02-.22-.02-.22-.04-.44-.07-.65,0-.05-.01-.11-.02-.16-.04-.27-.09-.53-.14-.79,0-.04-.02-.09-.03-.13-.05-.23-.11-.45-.17-.67-.01-.05-.03-.1-.04-.15-.16-.53-.35-1.05-.57-1.55,0-.02-.02-.04-.03-.06-1.99-4.43-6.44-7.52-11.6-7.52h-16.44c-2.47,0-4.47,2.01-4.47,4.48v32.88c0,2.47,2.01,4.48,4.48,4.48s4.47-2.01,4.47-4.48v-11.91h8.36l5.65,13.45c.64,1.76,2.33,2.94,4.2,2.94,2.46,0,4.47-2.01,4.47-4.48,0-.58-.11-1.14-.33-1.68l-.07-.18-4.76-11.33c2.68-1.3,4.83-3.52,6.06-6.24,0-.02.02-.04.03-.06.22-.5.41-1.02.57-1.55.01-.05.03-.1.04-.15.06-.22.12-.45.17-.67.01-.04.02-.09.03-.13.06-.26.1-.53.14-.79,0-.05.01-.11.02-.16.03-.22.05-.43.07-.65,0-.07.01-.15.02-.22.02-.27.03-.54.03-.82h0c0-.28-.01-.55-.03-.82Zm-23.91,4.61h-.75v-7.58h12.02c2.09,0,3.79,1.7,3.79,3.79,0,2.09-1.7,3.79-3.79,3.79h-11.26Z"/>
    <path class="cls-2" d="m21.97,65.98c-11.51,0-20.87-9.37-20.87-20.88s9.36-20.88,20.87-20.88c6.02,0,11.74,2.6,15.71,7.13,1.67,1.9,1.47,4.8-.43,6.46-1.9,1.67-4.79,1.47-6.46-.43-2.23-2.54-5.44-4-8.82-4-6.46,0-11.72,5.26-11.72,11.72s5.26,11.72,11.72,11.72c3.34,0,6.53-1.43,8.75-3.93,1.68-1.89,4.58-2.05,6.46-.37,1.89,1.68,2.05,4.58.37,6.47-3.96,4.44-9.64,6.99-15.59,6.99Z"/>
    <path class="cls-2" d="m107.04,45.07l-7.5-17.81c-.64-1.76-2.33-2.94-4.2-2.94-2.46,0-4.47,2.01-4.47,4.48,0,.58.11,1.14.33,1.68l.07.18,11.54,27.43,4.23-13.02Z"/>
  </g>
  <path class="cls-3" d="m134.58,76.88c.22.24.33.57.3.89-.08.61-.6,1.06-1.21,1.05h-10.42v6.98h7.56c.33,0,.64.14.86.38s.33.57.3.9c-.08.61-.6,1.06-1.21,1.05h-7.51v8.15c0,.33-.14.64-.38.86-.24.22-.57.33-.89.3-.61-.08-1.06-.6-1.05-1.21v-17.87c0-1.03.83-1.86,1.86-1.86h10.94c.33,0,.64.14.86.38Z"/>
  <path class="cls-3" d="m151.3,95.62c.34.51.24,1.2-.24,1.59-.26.2-.59.28-.91.23-.32-.06-.61-.24-.78-.52l-4.89-7.61h-4.6v6.98c0,.33-.14.64-.38.86-.24.22-.57.33-.89.3-.61-.08-1.06-.6-1.05-1.21v-17.87c0-1.03.83-1.86,1.86-1.86h6.73c3.56,0,6.57,2.91,6.54,6.46-.04,3.15-2.36,5.81-5.48,6.27l4.1,6.38Zm-5.03-8.64c2.22,0,4.03-1.78,4.07-4,.04-2.28-1.9-4.14-4.18-4.14h-6.29v8.15h6.4Z"/>
  <path class="cls-3" d="m173.31,96.74c-.12.28-.35.51-.64.62-.14.05-.28.08-.43.08-.48,0-.9-.29-1.08-.73l-1.57-3.92h-11l-1.57,3.92c-.11.29-.34.52-.62.64-.28.12-.6.13-.89.01s-.52-.34-.64-.62c-.12-.28-.12-.6,0-.89l7.17-17.96c.33-.84,1.15-1.39,2.05-1.39.91,0,1.72.55,2.05,1.39l7.17,17.96c.11.29.11.61-.01.89Zm-4.65-6.28l-4.57-11.44-4.57,11.44h9.14Z"/>
  <path class="cls-3" d="m192.35,77.67v18.62c0,.5-.32.94-.79,1.1-.48.16-1,0-1.3-.41l-11.87-15.83v15.13c0,.64-.52,1.16-1.17,1.16s-1.16-.52-1.16-1.16v-18.62c0-.5.32-.95.79-1.1s1,0,1.3.41l11.87,15.83v-15.13c0-.64.52-1.17,1.16-1.17s1.16.52,1.16,1.17Z"/>
  <path class="cls-3" d="m212.2,93.51c.19.24.28.55.25.86-.03.31-.19.59-.43.78-1.86,1.48-4.17,2.3-6.55,2.3-5.78,0-10.47-4.69-10.47-10.47,0-5.78,4.69-10.47,10.47-10.47,2.38,0,4.69.81,6.55,2.3.5.4.58,1.13.18,1.63-.19.24-.47.4-.78.43-.31.04-.62-.05-.86-.25-1.44-1.16-3.24-1.79-5.09-1.79-4.5,0-8.14,3.65-8.15,8.15,0,4.5,3.65,8.14,8.15,8.15,1.85,0,3.65-.62,5.09-1.78.5-.4,1.23-.32,1.63.18Z"/>
  <path class="cls-3" d="m229.06,96.17c.03.33-.08.65-.3.9s-.53.38-.86.38h-10.94c-1.03,0-1.86-.83-1.86-1.86v-17.22c0-1.03.83-1.86,1.86-1.86h10.94c.33,0,.64.14.86.38s.33.57.3.89c-.08.61-.6,1.06-1.21,1.05h-10.42v6.98h7.56c.33,0,.64.14.86.38s.33.57.3.9c-.08.61-.6,1.06-1.21,1.05h-7.51v6.98h10.42c.61,0,1.13.44,1.21,1.05Z"/>
</svg>