<svg width="65" height="65" fill="none" xmlns="http://www.w3.org/2000/svg"><g clip-path="url(#a)"><path d="M54.575 0h-44.15C4.689 0 0 4.69 0 10.425v44.15C0 60.311 4.69 65 10.425 65h44.15C60.311 65 65 60.31 65 54.575v-44.15C65 4.689 60.31 0 54.575 0Zm-3.462 53.89c-1.948.18-3.391-1.226-4.22-2.777-1.588-3.03-3.139-6.169-4.257-9.415-1.551-4.58-2.453-9.378-3.968-13.96-1.046-3.101-2.38-6.204-4.112-8.945-4.112-6.457-11.146-6.457-15.583-.18-3.57 5.05-4.328 10.785-3.787 16.773.325 3.39 1.154 6.6 3.066 9.486 3.787 5.7 10.1 6.53 15.222 1.984 2.633-2.308 4.292-5.266 5.807-8.729.65 1.912 1.263 3.535 1.696 5.23.108.505-.217 1.227-.541 1.696-4.076 5.843-9.415 9.27-16.773 8.44-7.07-.793-11.94-4.87-14.826-11.218C4.761 33.33 6.926 22.04 13.78 15.511c9.74-9.235 25.106-6.133 30.444 6.204.18.396.36.757.685 1.479.361-.938.614-1.587.866-2.237 1.046-2.922 2.092-5.807 3.066-8.729.325-.974.83-1.407 1.804-1.407 1.154 0 2.344-.144 3.499-.216 1.695-.072 1.84.144 1.19 1.695-2.417 5.916-4.834 11.831-7.322 17.711-.47 1.118-.542 2.056-.109 3.174 1.335 3.643 2.597 7.323 3.86 11.002 1.046 2.994 3.319 4.617 6.24 5.086 1.84.325 2.561 1.19 2.922 3.102-3.39.541-6.601 1.19-9.883 1.515h.072Z" fill="url(#b)"/></g><defs><linearGradient id="b" x1="0" y1="32.5" x2="65" y2="32.5" gradientUnits="userSpaceOnUse"><stop stop-color="#FF934D"/><stop offset="1" stop-color="#FFBA38"/></linearGradient><clipPath id="a"><path fill="white" d="M0 0h65v65H0z"/></clipPath></defs></svg>