<svg width="81" height="74" fill="none" xmlns="http://www.w3.org/2000/svg"><path d="M79.182 29.75a.177.177 0 0 0-.075-.084c-1.812-1.025-3.734-1.546-5.71-1.546-2.6 0-5.216.917-7.773 2.727a1.222 1.222 0 0 1-1.7-.295 1.225 1.225 0 0 1 .294-1.703c3.064-2.166 5.891-3.22 8.644-3.22 1.345 0 2.712.252 4.183.772a.174.174 0 0 0 .193-.057c.048-.059 1.148-1.495.555-4.99-.262-1.255-.744-2.28-1.425-3.036-1.373-1.745-2.766-2.112-3.692-2.112-.575 0-.939.145-.955.15a.172.172 0 0 0-.081.07c-1.331 2.097-2.878 3.508-5.701 5.2-.19.114-.406.173-.626.173-.428 0-.828-.228-1.049-.594a1.224 1.224 0 0 1 .42-1.676c3.408-2.044 4.764-3.387 5.583-5.545.415-1.523-.096-3.575-1.185-4.77l-.218-.268c-1.238-1.525-3.536-4.365-9.348-5.857a8.078 8.078 0 0 0-2.449-.387c-2.367 0-3.913 1.069-3.977 1.114a.176.176 0 0 0-.066.2c.23.677.933 2.744.218 5.056a1.215 1.215 0 0 1-1.527.806 1.223 1.223 0 0 1-.803-1.53c.474-1.531.373-2.885-.31-4.133-.89-1.636-2.128-2.736-3.77-3.364-1.57-.67-4.056-.818-5.06-.851-6.461.035-11.068.452-16.898 2.542-.746.243-1.328.734-1.64 1.377-.367.764-.36 1.715.026 2.75.006.014.018.055.042.122.45 1.322.892 2.509 1.312 3.53a1.218 1.218 0 1 1-2.254.93c-.35-.836-1.44-3.572-1.45-3.597-.02-.054-.524-1.322-2.15-1.322-1.22 0-2.736.73-4.5 2.164-2.346 1.821-3.544 3.47-3.56 4.9-.012 1.01.59 1.51.632 1.543.483.309 3.113 2.318 4.21 3.542.46.512.446 1.273-.034 1.732a1.21 1.21 0 0 1-.843.339c-.337 0-.65-.134-.882-.378-2.727-2.854-4.963-4.243-6.836-4.243-.264 0-.521.028-.768.085-.728.167-1.907 1.007-2.617 2.113C1.064 21.386.248 23.94.018 28.314c-.14 2.617.566 5.172 1.358 6.282 1.113 1.56 2.237 2.443 2.666 2.752 0 0 .343.22.473.116 1.114-.877 2.388-1.337 3.955-1.337.936 0 1.996.157 3.148.47.305.083.56.285.717.565a1.226 1.226 0 0 1-1.406 1.781 8.912 8.912 0 0 0-2.233-.355c-.666-.019-1.88.044-2.43.667a.224.224 0 0 0-.057.093c-.008.035-.138 3.009 4.088 4.527 3.55 1.274 5.394 1.316 13.107 1.316 1.136 0 2.388-.012 3.935-.038.391-.01.942-.203 1.294-.612.268-.31.383-.7.332-1.108a5.338 5.338 0 0 1 .323-1.887c.924-2.594 2.785-4.288 6.035-5.496.137-.05.278-.078.423-.078a1.224 1.224 0 0 1 .426 2.37c-2.485.925-4.015 2.244-4.551 3.922-.902 2.831 1.184 5.94 1.21 5.965 6.21 6.098 18.276 6.272 18.882 4.58.511-1.256.863-3.25-.37-5.62-1.93-3.709-8.476-3.938-8.542-3.941a1.221 1.221 0 0 1-1.184-1.254 1.237 1.237 0 0 1 1.249-1.19c.328.009 8.043.262 10.64 5.256 1.41 2.71 1.212 5.12.795 6.67-.1.417-.024.837.2 1.125.145.181.414.399.892.399 0 0 4.274.027 7.766-.7.472-.097.923.253.996.727a.875.875 0 0 1-.728.998c-5.124.804-9.618 1.205-13.518 1.205-4.713 0-8.562-.587-11.618-1.764.052 2.16.783 4.041 2.114 5.582.008.014.017.021.024.033.444.468 1.108 1.13 1.716 1.685.465.425 2.663 1.828 3.235 2.175 1.104.645 6.122 3.739 6.604 4.05 2.21 1.425 2.864 2.973 2.933 3.065.235.312.358 1.24.358 1.24.199.832.948 1.45 1.84 1.449A1.891 1.891 0 0 0 59 72.102s.03-2.125-.797-3.582c-.133-.27-1.872-3.127-3.881-4.678-.61-.471-2.049-1.525-2.049-1.525l-.008-.004a.373.373 0 0 1-.109-.503.372.372 0 0 1 .51-.121s4.238 2.983 6.894 2.24c3.904-1.09 9.015-3.663 9.015-9.453 0-.86-.085-1.67-.248-2.432.542-.29 1.08-.617 1.617-.992.63-.506.818-1.133.864-1.57.066-.625-.115-1.287-.471-1.724l-2.573-3.319-.03-.033c-.536-.682-1.237-.825-1.731-.825a2.66 2.66 0 0 0-.929.168 16.45 16.45 0 0 1-2.827 1.113 1.239 1.239 0 0 1-1.511-.835 1.222 1.222 0 0 1 .832-1.513c2.215-.64 6.21-2.411 8.102-7.06a1.214 1.214 0 0 1 1.59-.669c.622.254.923.97.668 1.594a14.185 14.185 0 0 1-2.487 4.036c-.478.773-.416 1.574.196 2.455l1.68 2.188a.156.156 0 0 0 .09.061c.027.008.685.194 1.622.194 1.263 0 3.05-.344 4.388-1.986 3.27-3.916 3.43-7.305 3.543-9.78.014-.246.023-.486.038-.74a3.928 3.928 0 0 0-1.817-3.062l.002.005Zm-50.074-1.624c-1.573 1.558-3.308 2.704-5.155 3.408a.144.144 0 0 0-.054.034c-.85.464-1.147 1.102-.988 2.132l.7 3.995a1.218 1.218 0 0 1-.96 1.434 1.231 1.231 0 0 1-1.434-.963l-.764-4.311c-.233-.906-1.1-1.385-1.663-1.45a.167.167 0 0 0-.078-.02c-6.062-.22-10.915-4.143-10.964-4.184a1.221 1.221 0 0 1 .771-2.165c.279 0 .554.098.77.276.184.15 4.559 3.664 9.808 3.664 3.098 0 5.888-1.208 8.295-3.587.462-.46 1.267-.455 1.723.01a1.218 1.218 0 0 1-.01 1.726l.003.001Zm1.607-8.485c-3.812 0-6.539 2.363-6.654 2.462a1.216 1.216 0 0 1-2.02-.996c.02-.326.166-.624.412-.839 1.67-1.47 4.724-3.041 8.293-3.041 2.57 0 5.029.816 7.307 2.428.265.187.443.468.498.79a1.222 1.222 0 0 1-1.203 1.428c-.252 0-.493-.077-.701-.224-1.887-1.334-3.882-2.01-5.932-2.01v.002Zm28.223 17.322c-.21.25-.505.403-.829.432-5.251.46-9.165-.698-11.544-3.429a9.129 9.129 0 0 1-1.011-1.416c-.006-.014-.017-.024-.026-.035-.316-.318-.748-.489-1.287-.508-.19-.006-.391.006-.616.037-.024-.006-1.542.33-3.034.279-3.362-.111-5.523-1.69-5.613-1.756a1.224 1.224 0 0 1 .767-2.204c.244.008.478.089.675.234.068.048 1.693 1.129 4.234 1.28 1.23.074 2.435-.316 2.582-.378.94-.396.904-1.44.858-1.844-.2-2.362.218-4.246.235-4.326a1.232 1.232 0 0 1 1.459-.922c.653.148 1.067.802.92 1.458-.011.052-1.121 5.283 1.699 8.505 1.842 2.103 5.054 2.981 9.487 2.59a1.218 1.218 0 0 1 1.32 1.111c.03.324-.07.64-.28.892h.004Zm-.957-18.914c-2.184 2.098-3.26 5.436-2.74 8.505a1.102 1.102 0 0 1-1.084 1.286c-.536 0-1.015-.381-1.08-.916-.4-3.278.658-6.305.672-6.336.07-.173.079-.321.025-.444-.064-.152-.21-.234-.323-.28-3.274-.362-9.17-1.61-11.909-5.893-.422-.623-1.526-.303-3.313-.306-8.028-.014-9.166-5.18-9.211-5.4a1.098 1.098 0 0 1 2.149-.45c.034.148.915 3.649 7.08 3.649.306 0 .623-.008.944-.026.708-.087 1.105-.46 1.208-1.142.102-2.38 1.892-4.15 2.933-4.82a1.094 1.094 0 0 1 1.517.332 1.102 1.102 0 0 1-.33 1.52c-.115.075-2.773 1.855-1.647 4.484 2.028 4.734 8.924 5.739 11.796 5.95.363-.028.776-.246 1.13-.594.242-.279.451-.505.661-.705 2.79-2.68 2.958-5.303 2.964-5.412a1.1 1.1 0 0 1 1.147-1.044 1.1 1.1 0 0 1 1.047 1.137c-.005.146-.174 3.585-3.638 6.91l.002-.005Z" fill="url(#a)"/><defs><linearGradient id="a" x1=".001" y1="36.999" x2="80.998" y2="36.999" gradientUnits="userSpaceOnUse"><stop stop-color="#FF934D"/><stop offset="1" stop-color="#FFBA38"/></linearGradient></defs></svg>