<svg width="65" height="66" fill="none" xmlns="http://www.w3.org/2000/svg"><g clip-path="url(#a)"><path d="M27.324 55.244a27.026 27.026 0 0 0 13.615-3.657l12.214 12.36a6.892 6.892 0 0 0 6.703 1.814 6.977 6.977 0 0 0 4.907-4.956 7.052 7.052 0 0 0-1.797-6.768L50.852 41.764a27.853 27.853 0 0 0 3.665-17.411A27.732 27.732 0 0 0 46.902 8.3 27.258 27.258 0 0 0 31.172.27a27.13 27.13 0 0 0-17.317 3.328 27.538 27.538 0 0 0-11.71 13.304A27.87 27.87 0 0 0 .903 34.657a27.635 27.635 0 0 0 9.742 14.834 27.176 27.176 0 0 0 16.68 5.753ZM6.572 27.61a21.079 21.079 0 0 1 3.936-12.247 20.748 20.748 0 0 1 10.289-7.604 20.537 20.537 0 0 1 12.75-.086 20.736 20.736 0 0 1 10.39 7.465 21.075 21.075 0 0 1 4.098 12.193 21.07 21.07 0 0 1-3.744 12.307 20.76 20.76 0 0 1-10.168 7.768 20.54 20.54 0 0 1-12.747.29 20.804 20.804 0 0 1-10.693-7.571 21.135 21.135 0 0 1-4.112-12.516l.001.001Z" fill="url(#b)"/><path d="M23.094 39.2a4.295 4.295 0 0 0 1.177 3.13 4.208 4.208 0 0 0 3.05 1.31 4.212 4.212 0 0 0 3.05-1.31 4.296 4.296 0 0 0 1.176-3.13v-7.153h7.092c1.51 0 2.907-.815 3.663-2.136a4.309 4.309 0 0 0 0-4.272 4.221 4.221 0 0 0-3.663-2.135h-7.085V16.35a4.296 4.296 0 0 0-1.177-3.129 4.208 4.208 0 0 0-3.05-1.311 4.212 4.212 0 0 0-3.049 1.311 4.295 4.295 0 0 0-1.177 3.129v7.154h-7.084a4.225 4.225 0 0 0-3.664 2.135 4.309 4.309 0 0 0 0 4.271 4.223 4.223 0 0 0 3.664 2.137h7.077V39.2Z" fill="url(#c)"/></g><defs><linearGradient id="b" x1=".002" y1="33" x2="65.001" y2="33" gradientUnits="userSpaceOnUse"><stop stop-color="#FF934D"/><stop offset="1" stop-color="#FFBA38"/></linearGradient><linearGradient id="c" x1="11.787" y1="27.776" x2="42.869" y2="27.776" gradientUnits="userSpaceOnUse"><stop stop-color="#FF934D"/><stop offset="1" stop-color="#FFBA38"/></linearGradient><clipPath id="a"><path fill="white" d="M0 0h65v66H0z"/></clipPath></defs></svg>