<svg width="71" height="64" fill="none" xmlns="http://www.w3.org/2000/svg"><path d="M15.5 31.999c0 4.067 3.322 7.36 7.42 7.36 4.1 0 7.425-3.293 7.425-7.36s-3.323-7.361-7.424-7.361c-4.1 0-7.421 3.295-7.421 7.36Zm7.423-10.668c5.942 0 10.756 4.778 10.756 10.666 0 5.889-4.815 10.667-10.756 10.667-5.94 0-10.757-4.774-10.757-10.667 0-5.89 4.813-10.666 10.757-10.666Zm37.322 21.337c5.94 0 10.755 4.778 10.755 10.667C71 59.223 66.184 64 60.244 64s-10.756-4.774-10.756-10.666c0-5.893 4.815-10.667 10.757-10.667Zm-24.6-.003c5.94 0 10.754 4.779 10.754 10.667 0 5.889-4.815 10.665-10.755 10.665s-10.757-4.774-10.757-10.665c0-5.889 4.815-10.667 10.758-10.667Zm-24.886 0c5.94 0 10.756 4.779 10.756 10.667C21.515 59.221 16.7 64 10.759 64 4.817 64 0 59.226 0 53.332c0-5.889 4.816-10.667 10.758-10.667ZM35.643 0c5.94 0 10.755 4.776 10.755 10.665 0 5.89-4.815 10.667-10.755 10.667s-10.757-4.778-10.757-10.667C24.886 4.775 29.7 0 35.643 0Zm12.598 21.332c5.94 0 10.755 4.776 10.755 10.665 0 5.89-4.815 10.667-10.755 10.667s-10.757-4.776-10.757-10.667c0-5.89 4.815-10.665 10.757-10.665Z" fill="url(#a)"/><defs><linearGradient id="a" x1="70.999" y1="32.001" x2="0" y2="32.001" gradientUnits="userSpaceOnUse"><stop stop-color="#FF934D"/><stop offset="1" stop-color="#FFBA38"/></linearGradient></defs></svg>