<svg width="216" height="38" viewBox="0 0 216 38" fill="none" xmlns="http://www.w3.org/2000/svg">
<path d="M9.21021 0.920543V30.6725H30.7485V37.0058H0V0.883719H9.21021V0.920543ZM32.1461 0.920543L28.6699 11.6357H32.9704L38.2027 0.920543H32.1461ZM55.5121 23.2713H71.9973L63.7906 7.06976L55.5121 23.2713ZM69.7037 0.920543L89.3426 37.0426H78.9498L74.9718 29.1996H52.5376L48.488 37.0426H38.8119L58.7017 0.920543H69.7037ZM111.168 38C117.582 38 123.496 37.1531 129.66 35.7539V17.4903H110.343V23.3818H121.023V30.5252C118.335 31.2616 114.608 31.9244 111.526 31.9244C101.492 31.9244 96.8685 27.064 96.8685 18.7791C96.8685 11.3411 101.276 6.03876 110.272 6.03876C115.432 6.03876 119.41 7.58527 119.948 11.7461H129.624C128.979 2.94573 120.019 0 110.164 0C96.6176 0 87.3716 6.55426 87.3716 18.8527C87.3357 31.8508 96.8326 38 111.168 38ZM167.038 37.0426V30.6725H144.568V21.8353H165.246V15.5388H144.568V7.29069H166.501V0.920543H135.322V37.0426H167.038ZM201.514 7.29069V0.920543H172.019V37.0426H181.266V22.4981H200.439V16.1647H181.266V7.32752H201.514V7.29069ZM205.778 37.0426H215.024V0.920543H205.778V37.0426Z" fill="#D50303"/>
</svg>
