<svg xmlns="http://www.w3.org/2000/svg" xmlns:xlink="http://www.w3.org/1999/xlink" x="0" y="0"
	 width="600" height="268" viewBox="0 0 600 268" enable-background="new 0 0 600 268" xml:space="preserve">
<g>
	<polygon fill="#848381" points="137.77,11.76 189.648,78.483 189.648,221.7 137.77,221.7 	"/>
	<polygon fill="#0B4F70" points="361.768,0.843 273.594,112.53 360.961,221.28 427.689,221.28 342.033,110.432 427.689,0.843 	"/>
	<polygon fill="#848381" points="189.406,221.595 255.989,221.698 301.585,164.981 266.694,121.575 	"/>
	<polygon fill="#848381" points="255.57,0.843 189.65,0.843 268.228,101.378 301.584,59.127 	"/>
	<polygon fill="#0B4F70" points="533.08,0.843 444.904,112.53 532.658,221.698 599,221.28 513.346,110.432 599,0.843 	"/>
	<polygon fill="#848381" points="426.881,0.843 360.961,0.843 439.539,101.378 472.895,59.127 	"/>
	<polygon fill="#848381" points="360.961,221.279 427.689,221.279 472.896,164.979 438.006,121.574 	"/>
	<polygon fill="#0B4F70" points="141.486,0.843 189.649,0.843 189.649,62.107 	"/>
	<polygon fill="#0B4F70" points="52.879,169.715 52.879,0.843 1,0.843 1,221.595 2.994,221.595 52.879,221.595 137.77,221.595 
		137.77,169.715 	"/>
	<rect x="2.449" y="238.651" fill="#0B4F70" width="6.635" height="28.506"/>
	<g>
		<path fill="#0B4F70" d="M23.592,267.157v-28.506h4.53l20.064,16.803c0.683,0.556,1.286,1.082,1.806,1.576
			c0.522,0.496,0.999,1.002,1.429,1.523c-0.106-1.6-0.179-2.732-0.215-3.396c-0.035-0.664-0.054-1.179-0.054-1.538v-14.968h5.96
			v28.506h-4.531l-20.928-17.61c-0.503-0.448-0.943-0.853-1.321-1.214c-0.377-0.357-0.728-0.728-1.052-1.106
			c0.091,0.882,0.157,1.714,0.203,2.495c0.044,0.782,0.067,1.463,0.067,2.036v15.399H23.592z"/>
		<path fill="#0B4F70" d="M71.647,267.157v-28.504h18.338c5.233,0,9.254,1.221,12.068,3.667c2.814,2.444,4.221,5.914,4.221,10.408
			c0,2.662-0.549,5.058-1.646,7.188c-1.096,2.132-2.642,3.807-4.638,5.031c-1.24,0.773-2.781,1.332-4.624,1.684
			c-1.844,0.35-4.204,0.526-7.079,0.526H71.647z M78.282,261.79h8.575c4.568,0,7.804-0.71,9.709-2.131
			c1.905-1.42,2.858-3.765,2.858-7.036c0-2.913-0.792-5.121-2.374-6.623c-1.582-1.501-3.92-2.251-7.011-2.251H78.282V261.79z"/>
		<polygon fill="#0B4F70" points="118.438,267.157 118.438,238.651 147.617,238.651 147.617,243.507 125.072,243.507 
			125.072,249.872 138.231,249.872 138.231,254.724 125.072,254.724 125.072,261.791 147.885,261.791 147.885,267.157 		"/>
		<polygon fill="#0B4F70" points="155.788,267.157 169.298,252.514 155.546,238.651 164.337,238.651 173.452,248.333 
			182.107,238.651 189.739,238.651 177.308,251.758 192.679,267.157 183.671,267.157 173.236,256.101 163.609,267.157 		"/>
		<rect x="221.159" y="238.651" fill="#0B4F70" width="6.634" height="28.506"/>
		<path fill="#0B4F70" d="M242.301,267.157v-28.506h4.53l20.063,16.803c0.682,0.556,1.285,1.082,1.807,1.576
			c0.522,0.496,0.999,1.002,1.429,1.523c-0.105-1.6-0.179-2.732-0.216-3.396c-0.035-0.664-0.054-1.179-0.054-1.538v-14.968h5.962
			v28.506h-4.531l-20.928-17.61c-0.504-0.448-0.944-0.853-1.32-1.214c-0.379-0.357-0.729-0.728-1.053-1.106
			c0.09,0.882,0.157,1.714,0.203,2.495c0.044,0.782,0.066,1.463,0.066,2.036v15.399H242.301z"/>
		<path fill="#0B4F70" d="M290.303,267.157v-28.506h4.53l20.065,16.803c0.682,0.556,1.283,1.082,1.807,1.576
			c0.52,0.496,0.996,1.002,1.426,1.523c-0.107-1.6-0.18-2.732-0.215-3.396c-0.033-0.664-0.053-1.179-0.053-1.538v-14.968h5.959
			v28.506h-4.531l-20.926-17.61c-0.503-0.448-0.944-0.853-1.321-1.214c-0.378-0.357-0.728-0.728-1.052-1.106
			c0.09,0.882,0.158,1.714,0.203,2.495c0.044,0.782,0.067,1.463,0.067,2.036v15.399H290.303z"/>
		<path fill="#0B4F70" d="M337.766,245.395c0-2.59,0.484-4.36,1.457-5.314c0.969-0.952,2.84-1.429,5.607-1.429h20.98
			c2.768,0,4.641,0.477,5.609,1.429c0.971,0.954,1.457,2.725,1.457,5.314v15.021c0,2.606-0.486,4.383-1.457,5.325
			c-0.969,0.944-2.842,1.417-5.609,1.417h-20.98c-2.768,0-4.639-0.473-5.607-1.417c-0.973-0.942-1.457-2.719-1.457-5.325V245.395z
			 M344.398,261.79h21.871v-18.041h-21.871V261.79z"/>
		<polygon fill="#0B4F70" points="396.475,267.157 379.996,238.651 387.572,238.651 399.115,259.255 410.119,238.651 
			416.727,238.651 401.059,267.157 		"/>
		<path fill="#0B4F70" d="M417.049,267.157l16.127-28.506h6.391l16.344,28.506h-7.443l-3.424-6.229h-18.068l-3.316,6.229H417.049z
			 M429.805,255.776h12.486l-6.148-11.595L429.805,255.776z"/>
		<polygon fill="#0B4F70" points="474.598,243.749 474.598,267.157 467.965,267.157 467.965,243.749 454.887,243.749 
			454.887,238.651 487.73,238.651 487.73,243.749 		"/>
		<rect x="495.848" y="238.651" fill="#0B4F70" width="6.635" height="28.506"/>
		<path fill="#0B4F70" d="M516.453,245.395c0-2.59,0.484-4.36,1.455-5.314c0.973-0.952,2.842-1.429,5.609-1.429H544.5
			c2.77,0,4.639,0.477,5.609,1.429c0.971,0.954,1.457,2.725,1.457,5.314v15.021c0,2.606-0.486,4.383-1.457,5.325
			c-0.971,0.944-2.84,1.417-5.609,1.417h-20.982c-2.768,0-4.637-0.473-5.609-1.417c-0.971-0.942-1.455-2.719-1.455-5.325V245.395z
			 M523.088,261.79h21.871v-18.041h-21.871V261.79z"/>
		<path fill="#0B4F70" d="M565.48,267.157v-28.506h4.531l20.062,16.803c0.682,0.556,1.285,1.082,1.807,1.576
			c0.521,0.496,1,1.002,1.428,1.523c-0.107-1.6-0.18-2.732-0.213-3.396c-0.037-0.664-0.055-1.179-0.055-1.538v-14.968H599v28.506
			h-4.529l-20.926-17.61c-0.506-0.448-0.945-0.853-1.322-1.214c-0.377-0.357-0.729-0.728-1.053-1.106
			c0.09,0.882,0.158,1.714,0.203,2.495c0.045,0.782,0.066,1.463,0.066,2.036v15.399H565.48z"/>
	</g>
</g>
</svg>
