<?xml version="1.0" standalone="no"?>
<!DOCTYPE svg PUBLIC "-//W3C//DTD SVG 20010904//EN"
 "http://www.w3.org/TR/2001/REC-SVG-20010904/DTD/svg10.dtd">
<svg version="1.0" xmlns="http://www.w3.org/2000/svg"
 width="700.000000pt" height="700.000000pt" viewBox="0 0 700.000000 700.000000"
 preserveAspectRatio="xMidYMid meet">
<metadata>
Created by potrace 1.14, written by Peter Selinger 2001-2017
</metadata>
<g transform="translate(0.000000,700.000000) scale(0.100000,-0.100000)"
fill="#000000" stroke="none">
<path d="M0 3500 l0 -3500 3500 0 3500 0 0 3500 0 3500 -3500 0 -3500 0 0
-3500z m3760 2688 c295 -48 572 -178 825 -390 420 -349 648 -865 633 -1432 -2
-115 0 -140 12 -147 8 -4 63 -31 121 -58 355 -170 640 -455 821 -822 133 -269
186 -520 175 -838 -9 -272 -59 -485 -167 -706 -99 -205 -214 -360 -392 -530
-295 -284 -636 -434 -1072 -475 -274 -25 -618 40 -886 166 -88 42 -275 159
-345 218 l-30 24 45 38 c72 60 209 203 266 279 262 348 384 761 354 1202 l-5
72 105 51 c391 192 711 537 870 938 46 117 95 298 105 389 l7 62 -83 25 c-96
29 -228 60 -234 55 -2 -2 -11 -49 -20 -104 -68 -397 -265 -710 -600 -950 -73
-53 -199 -125 -218 -125 -7 0 -21 25 -31 57 -10 32 -49 118 -87 193 -97 190
-238 373 -398 513 -53 47 -54 48 -35 67 81 79 374 234 555 294 222 73 466 98
737 72 l92 -8 0 134 c0 165 -19 286 -70 439 -84 255 -226 468 -420 634 -203
173 -397 272 -641 327 -88 19 -132 23 -284 23 -265 0 -449 -40 -649 -141 -269
-136 -519 -391 -656 -669 -103 -211 -134 -347 -135 -592 0 -94 2 -174 5 -177
3 -3 23 -1 45 4 22 5 102 15 177 22 222 19 462 -9 681 -82 168 -56 393 -176
511 -273 l29 -23 -67 -59 c-37 -32 -89 -84 -117 -116 l-51 -59 34 -26 c18 -15
74 -69 124 -120 132 -133 246 -310 310 -481 l23 -62 -47 -8 c-26 -4 -126 -8
-222 -8 -194 0 -298 15 -458 67 -52 16 -96 27 -99 25 -7 -8 -71 -311 -66 -319
6 -11 147 -54 253 -76 200 -43 472 -49 657 -13 49 10 53 3 53 -97 0 -258 -85
-558 -218 -766 -80 -125 -255 -318 -336 -371 -25 -17 -27 -16 -46 6 -47 55
-145 210 -190 299 -132 264 -196 554 -188 855 l5 160 -156 77 c-376 186 -680
504 -840 879 -23 53 -41 102 -41 108 0 20 -24 12 -105 -34 -112 -64 -207 -140
-311 -247 -534 -552 -525 -1437 21 -1983 198 -198 433 -326 713 -387 141 -31
414 -31 559 0 183 40 324 97 475 194 l76 49 116 -117 c64 -64 116 -118 116
-120 0 -2 -44 -32 -97 -68 -418 -277 -912 -363 -1392 -242 -195 50 -384 136
-566 259 -116 79 -338 300 -428 427 -134 191 -241 441 -287 676 -28 139 -37
389 -21 534 68 580 432 1100 956 1366 l91 46 -9 71 c-15 118 -2 426 23 542 88
413 338 802 685 1067 262 199 599 319 945 336 177 9 259 5 410 -20z"/>
<path d="M2310 3993 c-87 -6 -210 -25 -210 -32 0 -4 12 -36 26 -72 111 -272
280 -477 538 -651 83 -55 215 -128 233 -128 5 0 23 39 42 88 64 164 155 326
271 480 l25 33 -25 19 c-116 88 -313 179 -476 220 -98 25 -305 53 -359 48 -11
-1 -40 -3 -65 -5z"/>
</g>
</svg>
